<svg xmlns="http://www.w3.org/2000/svg" width="170.434" height="166.839" viewBox="0 0 170.434 166.839">
  <defs>
    <style>
      .cls-1 {
        fill: #f4f6f9;
      }

      .cls-2 {
        fill: none;
        stroke: #132144;
      }

      .cls-2, .cls-3 {
        stroke-linecap: round;
        stroke-linejoin: round;
        stroke-width: 1.5px;
      }

      .cls-3 {
        fill: #377dff;
        stroke: #377dff;
      }

      .cls-4 {
        fill: #333;
      }

      .cls-5 {
        fill: #132144;
      }
    </style>
  </defs>
  <g id="click" transform="translate(-2.911 -0.084)">
    <path id="BG" class="cls-1" d="M220.477,67.679c-.793-14.005-4.551-28.187-12.3-39.99a58.7,58.7,0,0,0-14.446-15.3,59.624,59.624,0,0,0-21.258-9.513,112.22,112.22,0,0,0-24.84-2.76c-8.309-.117-16.795.059-25.1.7-8.838.7-17.617,2.261-25.72,5.99A54.631,54.631,0,0,0,80.982,18.029c2.584,1.057,4.962,2.231,5.99,4.14,1.116,2.026.352,5.226-1.762,10.8-1.908,5.05-4.58,11.744-7.751,21.9h0a2.2,2.2,0,0,1,.763.029c3.171.822-.91,14.622-2.877,19.936-1.321,3.641-3.23,6.2-3.905,9.807C71,87,70.588,90.257,70.5,90.962c.176.029.382.059.558.088a68.092,68.092,0,0,1,1.82,9.337c2.731.382,5.755,6.048,6.871,8.838,2,5.021,3.611,10.159,5.667,15.18,2.789,6.782,6.577,15.5,14.534,16.031a17.114,17.114,0,0,0,7.928-1.38c-1.086-3.964-1.028-7.722,2.173-10.13-2.32-2.2-3.347-6.4-3.2-9.6.147-2.819,1.409-6.166,4.111-7.311-.147-3.7.088-8.573.088-12.361.352,0,.675.029,1.028.029l-.117-.558-.675-7.37-.029-.059a4.786,4.786,0,0,1-2.877-1.527l-.558.176c-2.085-.088-3.494.411-5.432-1.116a9.088,9.088,0,0,1-2.877-5.2l-.646-.352c-3.2-2.143-4.727-10.717.44-11.04l.793-.352c-.91-4.287.646-6.606,4.7-8.074.881-.323,1.85-.675,2.877-.969a64.347,64.347,0,0,1-7.957-4.2,23.543,23.543,0,0,1-6.107-5.285c-1.351-1.879-3.083-5.256-.617-7.076,2.731-2.055,5.461.675,7.311,2.231,2.76,2.32,6.107,3.964,9.308,5.814,2.965,1.732,6.724,3.318,9.924,5.079,6.166,3.347,11.363,5.226,10.717,13.33-.528,6.694-3.817,13.741-2.965,21.522v.117c.352-.264.734-.558,1.116-.851a95.014,95.014,0,0,1,1.116,9.454c3.729-1.057,5.168,3.876,6.606,8.779l.088-.059c1.527-1.908,3.083-3.817,4.7-5.637,5.872-6.636,12.625-14.681,16.442-18.38.147.206.294.44.44.646,1.321-3.2,4.287-10.335,5.96-13.653A141.067,141.067,0,0,1,171.8,61.043c-2.29-1.908-11.01-6.9-13.213-8.573A82.336,82.336,0,0,1,181.251,46.1c.44-.059.881-.088,1.321-.147a11.133,11.133,0,0,1-2.349-3.465c-.323-.734.47-1.615,1.2-1.116,2.965,2.055,6.753.822,10.071,1.5,2.643.529,5.2,2.584,5.079,5.461.059.029.088.029.147.059a5.067,5.067,0,0,1,.822.558c5.021,2.819,4.7,10.687,3.054,15.385-.147.44-.323.881-.5,1.321h0c2.848.734,5.109,2.437,4.639,5.755-.646,4.7-6.753,5.079-11.363,4.316l.088.029a11.7,11.7,0,0,1-3.876,2.76,1.254,1.254,0,0,1-1.028,0c-.91,3.347-2.114,8.045-2.437,10.276-.617,4.2-1.5,11.01-1.5,11.01l-.088.382c.147-.029.323-.059.47-.088,0,0-.264,5.491.7,6.636s4.874,4.287,6.636,6.048a40.986,40.986,0,0,1,6.166,8.515,45.945,45.945,0,0,0,10.365-8.838C219.185,100.328,221.329,82.976,220.477,67.679Z" transform="translate(-47.302)"/>
    <g id="Group_548" data-name="Group 548" transform="translate(3.537 15.823)">
      <path id="Path_270" data-name="Path 270" class="cls-2" d="M226.881,328.954a95.014,95.014,0,0,0-1.116-9.454,27.992,27.992,0,0,1-7.017,4.375,23.953,23.953,0,0,1-10.276,1.38c0,3.817-.235,8.662-.088,12.361a25.589,25.589,0,0,0,10.629-2.437C222.242,333.652,226.059,331.3,226.881,328.954Z" transform="translate(-148.204 -241.454)"/>
      <path id="Path_271" data-name="Path 271" class="cls-2" d="M348.735,328.94c-.352,2-1.791,8.955,1.938,6.782,2.819-1.615,4.61-5.256,7.076-7.223.323,4.2-2.408,9.484-.147,13.712,2.085,3.964,8.28,1.556,11.627.264a63.918,63.918,0,0,1,9.043-2.995" transform="translate(-246.98 -247.812)"/>
      <path id="Path_272" data-name="Path 272" class="cls-2" d="M368.2,198.031s3.67-8.955,5.872-13.33a141.071,141.071,0,0,1,8.045-14.035c-2.29-1.908-11.01-6.9-13.213-8.573a82.336,82.336,0,0,1,22.667-6.371c6.489-.763,16.853-.617,15.444,8.9a28.54,28.54,0,0,1-4.4,10.57c3.905-.91,13.33-.617,12.449,5.872-.851,6.2-11.3,4.874-15.121,3.318,0,0-2.965,10.394-3.494,14.064-.617,4.2-1.5,11.01-1.5,11.01" transform="translate(-261.131 -125.563)"/>
      <path id="Path_273" data-name="Path 273" class="cls-2" d="M432.8,225.1c.851.851,3.259,1,4.4.587" transform="translate(-306.763 -174.771)"/>
      <path id="Path_274" data-name="Path 274" class="cls-2" d="M437.14,192c-.352.734-.94,1.938-.94,1.938" transform="translate(-309.165 -151.39)"/>
      <path id="Path_275" data-name="Path 275" class="cls-2" d="M450.84,196.3c-.352.734-.94,1.938-.94,1.938" transform="translate(-318.842 -154.427)"/>
      <path id="Path_276" data-name="Path 276" class="cls-2" d="M198.577,381.2c-2.672,1.145-3.964,4.492-4.111,7.311-.147,3.2.851,7.4,3.2,9.6-4.052,3.083-3.083,8.28-1.116,13.33s6.048,13.389,6.048,16.178" transform="translate(-138.397 -285.038)"/>
      <path id="Path_277" data-name="Path 277" class="cls-2" d="M271.5,351.347c4.081-1.174,5.432,4.933,7.047,10.218a92.215,92.215,0,0,0,8.427,18c4.639,7.869,12.919,22.9,24.9,22.872,7.311,0,8.251-4.375,6.724-6.694s-5.814-.5-3.406,2.261,8.662-2.408,10.541-8.25" transform="translate(-192.823 -263.847)"/>
      <path id="Path_278" data-name="Path 278" class="cls-2" d="M294.3,323.517c1.527-1.908,3.083-3.817,4.7-5.637,5.872-6.636,12.625-14.681,16.442-18.38,1.586,2.378,4.492,5.109,9.4,7.957s12.625,5.373,18.292,4.052c0,0-.264,5.491.7,6.636s4.874,4.287,6.636,6.048c4.639,4.668,8.662,12.6,10.746,18.85A86.827,86.827,0,0,1,364,355.609" transform="translate(-208.928 -227.326)"/>
      <path id="Path_279" data-name="Path 279" class="cls-2" d="M17.208,321.977s-1.674-10.687-1.908-13.183a56.691,56.691,0,0,1,16.824-.235,68.093,68.093,0,0,1,1.82,9.337c2.731.382,5.755,6.048,6.871,8.838,2,5.021,3.611,10.159,5.667,15.18,2.789,6.782,6.577,15.5,14.534,16.031a17.114,17.114,0,0,0,7.928-1.38" transform="translate(-11.846 -233.361)"/>
      <path id="Path_280" data-name="Path 280" class="cls-2" d="M31.5,341.6c-5.491,0-16.09,2.32-18.644,5.814s.382,16.178,1.527,20.347c2.173,7.9,3.905,16.5,7.135,23.988,1.938,4.434,3.259,12.009,6.724,15.356" transform="translate(-9.405 -257.065)"/>
      <path id="Path_281" data-name="Path 281" class="cls-2" d="M41.7,205.97c1.086-3.876,5.2-5.637,8.985-7.869,2.055-5.285,4.022-12.244,7.194-11.451s-.91,14.622-2.877,19.936c-1.321,3.641-3.23,6.2-3.905,9.807-.5,2.672-.94,6.459-.94,6.459" transform="translate(-30.495 -147.567)"/>
      <line id="Line_88" data-name="Line 88" class="cls-2" x1="0.675" y1="7.37" transform="translate(60.503 75.873)"/>
      <path id="Path_282" data-name="Path 282" class="cls-2" d="M200.729,294.235c-3.905,1.233-7.957-4.815-4.169-7.135" transform="translate(-138.817 -218.567)"/>
      <path id="Path_283" data-name="Path 283" class="cls-3" d="M26.557,110.123a20.82,20.82,0,0,1-5.637-2.349c-2.613-1.967-1.644-5.814-1.409-8.691,1.057-12.126,4.2-22.549,8.9-33.619,1.351-3.2,3.083-7.311,5.256-9.983,2.231-2.76,5.344-1.85,8.691-.5s6.988,2.613,8.339,5.05c1.116,2.026.352,5.226-1.762,10.8-1.908,5.05-4.58,11.744-7.751,21.9" transform="translate(-14.559 -53.687)"/>
      <path id="Path_284" data-name="Path 284" class="cls-2" d="M177.479,269.215c-2.085-.088-3.494.411-5.432-1.116a9.106,9.106,0,0,1-2.995-6.988c.264-3.2,9.337-9.484,11.1-7.194" transform="translate(-120.441 -194.781)"/>
      <path id="Path_285" data-name="Path 285" class="cls-2" d="M7.314,208.428c-1.5-6.694-.323-13.154-1.762-19.613C4.29,183.09,2.44,175.867,4.378,170.288c1.057-2.995,3.23-3.817,5.491-2.143" transform="translate(-3.537 -133.935)"/>
      <path id="Path_286" data-name="Path 286" class="cls-2" d="M169.544,242.769c-1-4.522-.851-6.812,3.024-9.366,2.261-1.5,7.37-4.14,9.66-3.523" transform="translate(-120.434 -178.083)"/>
      <path id="Path_287" data-name="Path 287" class="cls-2" d="M11.421,146.221c-.881-.94-.558-4.345.176-5.637.94-1.644,4.169-3.846,6.107-2.584" transform="translate(-8.731 -112.98)"/>
      <path id="Path_288" data-name="Path 288" class="cls-2" d="M170.922,222.18c-1.145-4.551.411-6.988,4.58-8.515,3.582-1.292,8.515-2.877,11.979-1.2" transform="translate(-121.518 -165.333)"/>
      <path id="Path_289" data-name="Path 289" class="cls-2" d="M19.281,124.678a5.513,5.513,0,0,1,5.872-7.076" transform="translate(-14.506 -98.807)"/>
      <path id="Path_290" data-name="Path 290" class="cls-2" d="M160.249,258.04c-3.2-2.143-4.727-10.717.44-11.04" transform="translate(-112.166 -190.241)"/>
      <path id="Path_291" data-name="Path 291" class="cls-2" d="M26.4,97.657c0-3.788,3.494-11.275,7.34-8.985" transform="translate(-19.687 -78.099)"/>
      <path id="Path_292" data-name="Path 292" class="cls-2" d="M158.873,173.344a64.006,64.006,0,0,1-8.045-4.257,23.543,23.543,0,0,1-6.107-5.285c-1.351-1.879-3.083-5.256-.617-7.076,2.731-2.055,5.461.675,7.311,2.231,2.76,2.32,6.107,3.964,9.308,5.814,2.965,1.732,6.724,3.318,9.924,5.079,6.166,3.347,11.363,5.226,10.717,13.33-.529,6.694-3.817,13.741-2.965,21.522" transform="translate(-101.952 -125.951)"/>
      <path id="Path_293" data-name="Path 293" class="cls-2" d="M35,113.972c1.321-13.888,5.226-24.634,9.6-37.847.822-2.466,3.142-7.722,5.168-9.425" transform="translate(-25.762 -62.879)"/>
      <path id="Path_294" data-name="Path 294" class="cls-2" d="M498.9,240.052a9.824,9.824,0,0,1,2.789-.352" transform="translate(-353.455 -185.084)"/>
    </g>
    <path id="Path_295" data-name="Path 295" class="cls-4" d="M472.7,257.858a1.254,1.254,0,0,0,1.028,0,11.7,11.7,0,0,0,3.876-2.76,18.992,18.992,0,0,1-3.846-1C473.786,254.1,473.317,255.686,472.7,257.858Z" transform="translate(-331.411 -179.434)"/>
    <path id="Path_296" data-name="Path 296" class="cls-5" d="M461.445,147.7a8.074,8.074,0,0,0-.822-.558c-.059-.029-.088-.059-.147-.059.147-2.907-2.408-4.933-5.079-5.461-3.318-.675-7.105.558-10.071-1.5-.734-.529-1.527.382-1.2,1.116,2.408,5.52,8.192,7.516,13.8,7.957a9.11,9.11,0,0,0-1.879,5.843c-.029,3.377,1.086,7.634-1.879,10.159-.734.617.147,1.879.969,1.351a18.344,18.344,0,0,0,3.23-2.584,17.136,17.136,0,0,1,5.608.411c.176-.44.352-.881.5-1.321C466.142,158.384,466.465,150.515,461.445,147.7Z" transform="translate(-311.171 -98.809)"/>
  </g>
</svg>
