<svg xmlns="http://www.w3.org/2000/svg" width="170.56" height="127.456" viewBox="0 0 170.56 127.456">
  <defs>
    <style>
      .cls-1 {
        fill: #f4f6f9;
      }

      .cls-2 {
        fill: #f5ca99;
      }

      .cls-3 {
        fill: #132144;
      }

      .cls-4 {
        fill: #377dff;
      }

      .cls-5 {
        fill: none;
        stroke: #132144;
        stroke-linecap: round;
        stroke-linejoin: round;
        stroke-width: 1.5px;
      }
    </style>
  </defs>
  <g id="Group_550" data-name="Group 550" transform="translate(-1338.25 -1843)">
    <path id="Path_297" data-name="Path 297" class="cls-1" d="M268.138,47.689c.3,7.378.6,16.28.735,24.448h0s9.039-6.071,15.191-8.44a4.967,4.967,0,0,1,1.77-.327l.381-.572c.953-2.069,2.015-4.111,2.995-6.207-1.5-.218-1.661-2.151-1.661-3.512,0-.463,0-.953.027-1.416h0c-2.586-.653-4.22-3.349-3.185-6.561a7.947,7.947,0,0,1,5.554-4.9,34.883,34.883,0,0,1,2.94-5.881,22.156,22.156,0,0,0-9.311-1.361,23.463,23.463,0,0,0-2.369.3,28.145,28.145,0,0,0-4,.191,52.018,52.018,0,0,0-13.5,3.675C266.994,38.841,267.974,43.5,268.138,47.689Z" transform="translate(1134.651 1819.05)"/>
    <path id="Path_298" data-name="Path 298" class="cls-1" d="M441.209,106.5a13.1,13.1,0,0,1-2.287-.708c-.681,1.579-1.361,3.1-1.96,4.465-1.8,4.111-5.881,13.558-5.881,13.558l-.082.191c.218.191.381.381.49.463,1.361,1.361,1.5,5.989,1.525,13.612s-.136,23.849,2.26,32.7c1.334,4.9,2.722,13.721,7,16.825,6.452,4.71,12.877-4.928,15.191-10.046,1.987-4.356,2.995-8.739,4.41-13.231.735-2.369,1.225-4.193,3.185-4.628,0,0,3.43-14.1,4.655-20.528,1.089-5.853,2.369-13.5,7.95-16.825,2.26-1.361,7.269-3.757,9.066-.572,1.606-1.579,4.71-2.015,5.962-.191A21.076,21.076,0,0,0,487,107.372a21.86,21.86,0,0,0-9.175-5.935,22.439,22.439,0,0,0-12.36-.027C457.49,103.425,449.758,108.353,441.209,106.5Z" transform="translate(997.166 1760.35)"/>
    <path id="Path_299" data-name="Path 299" class="cls-1" d="M648.134,325.817a19.028,19.028,0,0,0-6.316-10.454c-3.512-3.158-7.487-5.853-11.244-8.685l-2.913-2.178-2.913,13.422-.027.109A10.081,10.081,0,0,1,626,319.8c3.076,5.608,1.5,14.919-.544,20.528a23.4,23.4,0,0,1-3.675,6.044,16.639,16.639,0,0,1-.681,7.323,45.387,45.387,0,0,0,6.915-1.225c7.7-2.069,15.3-6.833,18.567-14.375A20.983,20.983,0,0,0,648.134,325.817Z" transform="translate(858.82 1601.087)"/>
    <path id="Path_300" data-name="Path 300" class="cls-2" d="M691.086,230.78a4.636,4.636,0,0,0-8.576.191l-.436,1.143c-.572-.218-1.361-.517-2.314-.871a1.224,1.224,0,0,0-.871,2.287l2.287.871-.3.762a4.636,4.636,0,1,0,8.657,3.321l1.606-4.165A4.564,4.564,0,0,0,691.086,230.78Zm-2.205,2.668-1.606,4.165a2.189,2.189,0,1,1-4.084-1.579l1.606-4.165a2.185,2.185,0,0,1,4.22.79A1.62,1.62,0,0,1,688.881,233.448Z" transform="translate(817.339 1667.629)"/>
    <path id="Path_315" data-name="Path 315" class="cls-2" d="M548.283,193.788c-7.3-2.532-17.7-6.289-17.805-6.316a1.234,1.234,0,0,0-.926,2.287c.027,0,.054.027.082.027l.762.272-1.143,2.5a1.235,1.235,0,0,0,.6,1.633h0a1.105,1.105,0,0,0,.517.109,1.2,1.2,0,0,0,1.116-.708l1.225-2.7.082.027c-1.171,2.314-1.116,2.641-.817,3.158a1.211,1.211,0,0,0,1.062.6,1.265,1.265,0,0,0,.626-.163,1.149,1.149,0,0,0,.6-.953,18.463,18.463,0,0,1,.871-1.824c3.621,1.307,8.44,2.995,12.333,4.356a1.256,1.256,0,0,0,1.579-.762,1.2,1.2,0,0,0-.762-1.552Z" transform="translate(931.191 1699.133)"/>
    <path id="Path_319" data-name="Path 319" class="cls-3" d="M351.327,100.563c-.027.463-.027.953-.027,1.416,0,1.361.163,3.294,1.661,3.512a48.679,48.679,0,0,0,2.205-5.391A5.657,5.657,0,0,1,351.327,100.563Z" transform="translate(1069.045 1766.243)"/>
    <path id="Path_320" data-name="Path 320" class="cls-3" d="M394.975,9.2c-4.111-1.252-6.371-5.5-9.964-7.623-3.539-2.069-8.222-2.341-11.353.626a9.008,9.008,0,0,0-.953,1.116c-.136.191-.218.327-.3.436a5.757,5.757,0,0,0-4.084.544c-1.933,1.062-3.349,3.185-4.574,4.982a35.4,35.4,0,0,0-3.648,6.97,7.764,7.764,0,0,1,5.145.218,16.913,16.913,0,0,0,1.388,5.418,1.086,1.086,0,0,0,1.879,0c2.369-4.383,7.786-8.766,7.16-14.021a52.69,52.69,0,0,0,19,3.485A1.1,1.1,0,0,0,394.975,9.2Z" transform="translate(1059.609 1842.996)"/>
    <path id="Path_323" data-name="Path 323" class="cls-4" d="M129.637,235.108c-.708-13.286-1.5-14.729-1.824-15.273a6.8,6.8,0,0,0-4.574-3.049c0-.6-.027-1.171-.027-1.742-.082-5.962-.109-10.672-5.472-14.429-2.178-1.525-6.67-2.314-11.38-.408-6.18,2.5-6.289,9.365-6.371,14.375-.027,1.035-.027,2.042-.109,2.886l-.218.054c-4.6,1.089-4.846,7.187-5.037,11.652-.027.708-.054,1.388-.109,2.015C94.027,237.994,94,248.421,94,248.5a.955.955,0,0,0,.9.953c3.811.191,7.351.3,10.863.3,7.405,0,14.592-.408,23.413-.953a.961.961,0,0,0,.9-.98C130.127,247.795,129.991,241.587,129.637,235.108Zm-27.143-20.473c.082-4.792.163-10.237,4.846-12.142,2.722-1.116,6.806-1.443,9.039.136,4.329,3.022,4.383,6.779,4.438,12.442,0,.436,0,.871.027,1.334-.544-.054-1.089-.054-1.579-.054-2.777,0-11.761.245-16.825.762C102.467,216.35,102.467,215.506,102.494,214.635Z" transform="translate(1269.639 1686.689)"/>
    <path id="Path_325" data-name="Path 325" class="cls-3" d="M162.823,301.378a3.447,3.447,0,0,0,3.131-3.485,3.4,3.4,0,0,0-3.1-3.43,12.743,12.743,0,0,0-3.376-.027l-.327.027a3.463,3.463,0,0,0-.381,6.888c-.953,3.485-2.423,7.95-2.45,8a.955.955,0,0,0,.6,1.2,1.157,1.157,0,0,0,.3.054h.027l7.024-.218a.966.966,0,0,0,.926-.98c0-.082-.027-.163-.027-.245C165.11,309.164,163.8,304.781,162.823,301.378Z" transform="translate(1218.625 1616.347)"/>
    <g id="Group_549" data-name="Group 549" transform="translate(1339 1846.922)">
      <path id="Path_301" data-name="Path 301" class="cls-5" d="M282.8,153.586s9.039-6.071,15.191-8.44c2.831-1.089,6.126.871,8.984,1.933a69.51,69.51,0,0,1,11.434,5.363,37.724,37.724,0,0,1,5.282,4.247c1.361,1.361,1.5,5.989,1.525,13.612s-.136,23.849,2.26,32.7c1.334,4.9,2.723,13.721,7,16.825,6.452,4.71,12.877-4.928,15.191-10.046,1.987-4.356,2.995-8.739,4.41-13.231.926-2.94,1.443-5.037,4.9-4.683,2.777.3,6.534,2.26,8.984,3.539,3.975,2.1,9.556,3.975,11.87,8.167,3.076,5.608,1.5,14.919-.545,20.528-1.225,3.376-7.242,12.578-9.855,6.806-1.143-2.5,1.688-6.234,4.274-4.22,5.554,4.383-1.388,18.7-4.111,22.352" transform="translate(-233.981 -129.632)"/>
      <path id="Path_302" data-name="Path 302" class="cls-5" d="M332.475,164.7c-.136,3.376,1.2,11.9,4.084,14.239,4.438,3.594,10.618-4.683,13.313-7.133-.136,2.968-1.851,10.345,1.388,12.115,2.314,1.252,5.173-1.089,6.806-2.314" transform="translate(-257.986 -130.512)"/>
      <path id="Path_303" data-name="Path 303" class="cls-5" d="M337.746,226.7a62.115,62.115,0,0,0-7.378,10.155c-2.423,4.247-4,7.623-2.995,10.046.708,1.715,2.94.844,3.594,2.7.9,2.532-3.675,6.806-4.519,8.875-.98,2.4-1.688,4.9-.953,7.215.6,1.933,1.77,2.94,1.633,5.173-.109,2.423-4.628,9.256-4.628,10.835" transform="translate(-249.396 -182.228)"/>
      <line id="Line_89" data-name="Line 89" class="cls-5" x2="1.633" y2="0.272" transform="translate(83.869 63.122)"/>
      <path id="Path_304" data-name="Path 304" class="cls-5" d="M349.5,353.7c.381.109.681.191,1.089.272" transform="translate(-269.075 -274.465)"/>
      <path id="Path_305" data-name="Path 305" class="cls-5" d="M337.5,423.7h1.361" transform="translate(-259.884 -328.087)"/>
      <path id="Path_306" data-name="Path 306" class="cls-5" d="M388.5,327.7c2.559,1.879,5.309,3.349,7.623,5.445" transform="translate(-299.567 -254.992)"/>
      <path id="Path_307" data-name="Path 307" class="cls-5" d="M405.495,329.7a48.531,48.531,0,0,1-2.995,11.434" transform="translate(-309.92 -257.104)"/>
      <path id="Path_308" data-name="Path 308" class="cls-5" d="M397.222,324.7a89.963,89.963,0,0,1-2.722,9.093" transform="translate(-303.753 -253.028)"/>
      <path id="Path_309" data-name="Path 309" class="cls-5" d="M556.2,212.3s3.43-14.1,4.655-20.528c1.089-5.853,2.369-13.5,7.95-16.825,2.26-1.361,7.269-3.757,9.066-.572,1.96-1.906,6.153-2.151,6.507,1.361,2.532-1.525,4.982-.082,4.9,2.995,6.915.3,2.668,13.2-.817,15.845-2.532,1.879-4.71,1.2-5.989-.327" transform="translate(-432.948 -138.133)"/>
      <line id="Line_90" data-name="Line 90" class="cls-5" y1="26.953" x2="5.853" transform="translate(144.569 53.979)"/>
      <path id="Path_310" data-name="Path 310" class="cls-5" d="M566.5,277.7a36.26,36.26,0,0,1,11.979,1.579c3.648,1.28,7.487,3.349,8.984,5.527" transform="translate(-440.444 -216.725)"/>
      <path id="Path_311" data-name="Path 311" class="cls-5" d="M608.49,198.7c.109.953-.027,2.477,0,2.995" transform="translate(-471 -155.801)"/>
      <path id="Path_312" data-name="Path 312" class="cls-5" d="M635.7,178.6a12.392,12.392,0,0,1,2.069,7.922" transform="translate(-490.805 -140.616)"/>
      <path id="Path_313" data-name="Path 313" class="cls-5" d="M637.549,183.6c.762,3.7,1.307,9.665-.3,12.741-1.307,2.5-5.064,4.873-7.95,3.349" transform="translate(-486.147 -144.932)"/>
      <path id="Path_314" data-name="Path 314" class="cls-5" d="M646.234,194.6c0,7.9-4.165,20.555-11.734,13.558" transform="translate(-489.931 -153.358)"/>
      <path id="Path_316" data-name="Path 316" class="cls-5" d="M340.758,49.336c1.742-3.784,3.866-7.569,5.2-11.6-4.438,2.1-8.549-1.443-7.024-6.1,1.416-4.356,7.487-6.561,11.3-4.383,1.552-5.2,5.717-12.088,11.489-12.768,7.814-.9,13.449,6.017,17.669,11.543a58.663,58.663,0,0,1,5.445,8.821c-2.913-.408-9.992-1.552-9.992-1.552-.6,4.465-3.294,10.073-5.091,14.266-1.8,4.111-5.881,13.558-5.881,13.558" transform="translate(-264.986 -14.409)"/>
      <path id="Path_317" data-name="Path 317" class="cls-5" d="M420.5,91.7c.544,1.388,1.77,3.1,3.539,3.1" transform="translate(-323.793 -70.658)"/>
      <line id="Line_91" data-name="Line 91" class="cls-5" x2="0.817" y2="1.633" transform="translate(99.045 13.419)"/>
      <line id="Line_92" data-name="Line 92" class="cls-5" x2="1.089" y2="1.906" transform="translate(102.507 13.147)"/>
      <path id="Path_318" data-name="Path 318" class="cls-5" d="M361.222,79.972c-.762-.191-3.675-.245-2.995-.272" transform="translate(-275.849 -61.925)"/>
      <path id="Path_321" data-name="Path 321" class="cls-5" d="M72.76,155.269c-5.554.486-17.7.88-28.858.88s-23.6.185-28.777.046S5.052,154.575,4.7,147.581s-.544-18.133-.572-25.126c-.054-16.3-.626-32.583-.626-48.933C3.5,65,3.473,56.755,5.161,48.4c.871-4.4,5.744-5.859,10.509-6.577,8.14-1.2,12.986-.741,21.235-1.112,11.924-.509,30.138.764,35.2,1.158s6.452,5.234,6.67,9.495c.408,8.406.79,19.175.817,27.581.054,17.345-.381,34.9.708,52.175.381,6.067.082,13.64.082,16.28A8.2,8.2,0,0,1,72.76,155.269Z" transform="translate(-3.5 -33.461)"/>
      <path id="Path_322" data-name="Path 322" class="cls-5" d="M42.55,45.5c-6.18,2.219-7.432,6.727-7.7,13.293s-.136,19.4-.136,32.2.136,26.978.136,35.994-.027,17.985.463,23.973,4,8.831,9.066,8.854" transform="translate(-26.188 -37.035)"/>
      <path id="Path_324" data-name="Path 324" class="cls-5" d="M128.78,268.6c-1.851,3.43-1.062,19.684-1.28,30.819" transform="translate(-93.741 -211.916)"/>
      <path id="Path_326" data-name="Path 326" class="cls-5" d="M595.336,223.175c2.232-2.369,2.287-9.148-1.28-10.563,2.5-.163,8.685.354,9.447-3.076.49-2.178-2.668-2.831-4.492-2.967-5.091-.381-11.761,1.416-14.211,6.262" transform="translate(-453.762 -162.618)"/>
    </g>
  </g>
</svg>
