<svg xmlns="http://www.w3.org/2000/svg" width="1920" height="1080.001" viewBox="0 0 1920 1080.001">
  <g id="Group_3745" data-name="Group 3745" transform="translate(6338.685 8428.336)">
    <rect id="Rectangle_451" data-name="Rectangle 451" width="1920" height="1080" transform="translate(-6338.685 -8428.335)" fill="#132144"/>
    <g id="SignIn_bg" transform="translate(-6949.843 -9425.993)">
      <path id="Intersection_1" data-name="Intersection 1" d="M5577.276,11406.256a100.5,100.5,0,1,1,71.063,29.436A100.5,100.5,0,0,1,5577.276,11406.256Zm-328.1-328.1L4918.821,10747.8v-324.143h528.631l352.562,352.563a100.5,100.5,0,0,1-142.129,142.129l-231.226-231.226a100.5,100.5,0,0,1,0,142.129c-.069.072-.145.145-.217.216a.059.059,0,0,1-.011.015c-.066.063-.13.127-.194.19l-.037.038c-.018.015-.032.031-.049.049s-.046.043-.066.063-.041.04-.061.058a.445.445,0,0,1-.055.055c-.018.018-.032.035-.049.05l-.066.066c-.006,0-.014.014-.02.017-.032.032-.066.066-.1.1-.006.009-.012.012-.018.021-.032.031-.066.061-.1.092a.327.327,0,0,1-.032.032c-.026.025-.055.055-.083.081a.249.249,0,0,1-.023.022c-.069.069-.138.136-.208.2l-.026.023c-.069.066-.138.136-.21.2l-.015.015c-.035.031-.066.063-.1.1a.034.034,0,0,0-.014.015l-.1.095s-.009.009-.009.012c-.075.072-.147.139-.225.211l-.02.021c-.032.031-.066.061-.1.092l-.012.012-.1.1a.059.059,0,0,0-.02.02l-.1.09-.018.018-.1.092-.02.021-.1.09s-.006.006-.006.009c-.038.034-.075.066-.11.1-.008.006-.017.018-.026.023-.029.028-.063.058-.092.086a.163.163,0,0,0-.026.023l-.093.084a.141.141,0,0,1-.023.022l-.1.09,0,0-.115.106-.009.006-.11.1c-.006,0-.011.012-.017.015l-.1.092c0,.006-.015.012-.018.018l-.1.092-.005.006c-.035.035-.075.069-.113.1,0,0,0,0-.006,0l-.112.1-.006.006-.116.1,0,0c-.037.034-.078.071-.115.1l-.009.009c-.038.031-.075.066-.11.1,0,0-.008.006-.011.009-.035.032-.075.069-.11.1l-.006.006a100.5,100.5,0,0,1-137.264-3.595l106.26,106.264a100.5,100.5,0,1,1-142.129,142.129Zm1062.789-74.246-497.1-497.1c.37.37.733.739,1.1,1.112.343.334.684.669,1.022,1.01L5923.051,10615a100.5,100.5,0,0,1-142.129,142.129l-106.067-106.067c-.347-.346-.69-.7-1.031-1.045-.367-.355-.728-.713-1.088-1.074l-225.284-225.284h568.519l438.123,438.123a100.5,100.5,0,0,1-142.129,142.129Z" transform="translate(-4307.661 -9426.001)" fill="#71869d" opacity="0.17"/>
    </g>
  </g>
</svg>
